<?xml version="1.0" standalone="no"?>
<!DOCTYPE svg PUBLIC "-//W3C//DTD SVG 20010904//EN"
 "http://www.w3.org/TR/2001/REC-SVG-20010904/DTD/svg10.dtd">
<svg version="1.0" xmlns="http://www.w3.org/2000/svg"
 width="256.000000pt" height="256.000000pt" viewBox="0 0 256.000000 256.000000"
 preserveAspectRatio="xMidYMid meet">

<g transform="translate(0.000000,256.000000) scale(0.100000,-0.100000)"
fill="#000000" stroke="none">
<path d="M1116 2544 c-288 -45 -504 -154 -711 -359 -196 -194 -299 -376 -361
-640 -25 -109 -30 -350 -9 -475 44 -267 166 -502 360 -695 206 -206 453 -329
730 -366 113 -15 333 -7 440 16 466 98 854 470 971 933 22 86 24 115 24 313 0
232 -7 291 -54 426 -61 177 -163 339 -306 483 -283 285 -698 424 -1084 364z
m148 -81 c-50 -294 -190 -551 -420 -773 -188 -181 -402 -302 -638 -359 -138
-34 -130 -37 -127 41 1 37 13 115 26 173 106 466 489 841 950 929 44 8 89 17
100 19 11 3 42 5 68 6 l48 1 -7 -37z m193 26 c269 -37 511 -157 703 -351 187
-189 302 -414 345 -678 8 -52 15 -110 15 -128 0 -37 11 -37 -135 -1 -419 104
-791 423 -966 830 -42 95 -89 261 -89 310 0 34 6 35 127 18z m-138 -192 c130
-453 514 -843 975 -989 l99 -32 -59 -17 c-243 -69 -447 -191 -635 -379 -180
-179 -298 -368 -369 -589 l-33 -103 -32 98 c-58 176 -117 289 -228 436 -178
237 -446 429 -729 522 -56 19 -96 36 -88 39 223 71 309 110 455 208 138 91
314 265 404 397 77 114 162 290 193 400 12 44 24 79 26 78 1 -2 11 -33 21 -69z
m-1119 -1071 c463 -117 850 -469 1008 -918 36 -101 66 -238 55 -248 -10 -9
-147 5 -235 25 -354 79 -663 325 -831 660 -61 124 -108 300 -120 453 -5 62 -9
61 123 28z m2320 -1 c0 -56 -32 -235 -56 -308 -62 -197 -160 -356 -313 -508
-203 -201 -459 -323 -731 -347 l-92 -8 5 56 c8 76 65 247 117 351 97 193 264
393 439 525 145 108 351 204 536 248 87 21 95 20 95 -9z"/>
<path d="M1320 1698 l0 -398 398 0 397 0 -95 51 c-152 82 -237 146 -370 279
-133 132 -201 223 -281 373 l-49 92 0 -397z"/>
<path d="M1236 2023 c-135 -276 -387 -530 -676 -679 l-75 -39 389 -3 c214 -1
391 -1 393 1 2 2 2 178 1 391 l-3 388 -29 -59z"/>
<path d="M576 1201 c280 -148 511 -381 653 -656 l41 -80 0 393 0 392 -392 0
-393 0 91 -49z"/>
<path d="M1320 860 c0 -214 1 -390 3 -390 2 0 22 37 45 83 133 259 390 516
655 652 l88 45 -395 0 -396 0 0 -390z"/>
<path d="M2334 321 c-49 -21 -70 -94 -39 -137 52 -75 175 -36 175 55 0 61 -77
107 -136 82z m106 -41 c37 -70 -30 -142 -105 -114 -42 17 -53 95 -17 127 35
31 103 23 122 -13z"/>
<path d="M2337 283 c-11 -10 -8 -91 3 -98 6 -4 10 5 10 19 0 34 13 33 39 -1
20 -27 30 -22 12 6 -6 9 -5 21 2 32 8 13 7 21 -2 33 -14 16 -52 22 -64 9z m58
-28 c0 -5 -10 -11 -22 -13 -16 -2 -23 2 -23 13 0 11 7 15 23 13 12 -2 22 -7
22 -13z"/>
</g>
</svg>
