<svg xmlns="http://www.w3.org/2000/svg" width="150" height="150">
  <path style="fill:#fefefe;stroke:none" d="M0 0v150h150V0H0z"/>
  <path style="fill:#ababab;stroke:none" d="m56 18 1 1-1-1z"/>
  <path style="fill:#8f8f8f;stroke:none" d="m57 18 1 1-1-1z"/>
  <path style="fill:#626262;stroke:none" d="M59 18v1-1z"/>
  <path style="fill:#050504;stroke:none" d="M60 19c-17 2-13 18-15 30-1 5-6 7-7 12-3 10-4 34 1 43 8 13 41 7 54 7 5 0 12 2 17 0 5-3 5-7 5-12V68c0-4 0-10-5-11-9-4-38-3-28 14 4 6 13 1 15 10 4 14-20 15-28 11-9-5-5-30-5-39 0-4-1-9 2-13 7-9 26 3 35-5 4-4 3-14-3-16-9-4-28-2-38 0z"/>
  <path style="fill:#626262;stroke:none" d="M63 18v1-1m35 0v1-1z"/>
  <path style="fill:#ababab;stroke:none" d="m99 18 1 1-1-1z"/>
  <path style="fill:#8f8f8f;stroke:none" d="m54 19 1 1-1-1z"/>
  <path style="fill:#626262;stroke:none" d="m55 19 1 1-1-1m45 0 1 1-1-1z"/>
  <path style="fill:#ababab;stroke:none" d="m52 20 1 1-1-1z"/>
  <path style="fill:#626262;stroke:none" d="m101 20 1 1-1-1m-50 1 1 1-1-1z"/>
  <path style="fill:#ababab;stroke:none" d="m102 21 1 1-1-1z"/>
  <path style="fill:#626262;stroke:none" d="m50 22 1 1-1-1m-1 1 1 1-1-1m-1 1 1 1-1-1z"/>
  <path style="fill:#ababab;stroke:none" d="m47 25 1 1-1-1m-1 2 1 1-1-1z"/>
  <path style="fill:#626262;stroke:none" d="m46 28 1 1-1-1z"/>
  <path style="fill:#8f8f8f;stroke:none" d="m45 30 1 1-1-1z"/>
  <path style="fill:#626262;stroke:none" d="M45 31v3h1l-1-3m57 2 1 1-1-1z"/>
  <path style="fill:#ababab;stroke:none" d="m102 34 1 1-1-1z"/>
  <path style="fill:#626262;stroke:none" d="m101 35 1 1-1-1z"/>
  <path style="fill:#8f8f8f;stroke:none" d="m100 36 1 1-1-1z"/>
  <path style="fill:#626262;stroke:none" d="M69 37v1h29l-29-1z"/>
  <path style="fill:#8f8f8f;stroke:none" d="m98 37 1 1-1-1z"/>
  <path style="fill:#626262;stroke:none" d="m66 38 1 1-1-1z"/>
  <path style="fill:#ababab;stroke:none" d="m67 38 1 1-1-1z"/>
  <path style="fill:#626262;stroke:none" d="m65 39 1 1-1-1m-1 2 1 1-1-1z"/>
  <path style="fill:#8f8f8f;stroke:none" d="m64 42 1 1-1-1z"/>
  <path style="fill:#ababab;stroke:none" d="M64 43v3h1l-1-3z"/>
  <path style="fill:#8f8f8f;stroke:none" d="m64 46 1 1-1-1z"/>
  <path style="fill:#ababab;stroke:none" d="M64 47v33h1l-1-33m-20 3 1 1-1-1z"/>
  <path style="fill:#626262;stroke:none" d="m44 51 1 1-1-1z"/>
  <path style="fill:#ababab;stroke:none" d="m43 52 1 1-1-1z"/>
  <path style="fill:#626262;stroke:none" d="m43 53 1 1-1-1m-1 1 1 1-1-1m-1 1 1 1-1-1z"/>
  <path style="fill:#8f8f8f;stroke:none" d="m85 55 1 1-1-1z"/>
  <path style="fill:#626262;stroke:none" d="M86 55v1h22l-22-1z"/>
  <path style="fill:#8f8f8f;stroke:none" d="m108 55 1 1-1-1z"/>
  <path style="fill:#ababab;stroke:none" d="m109 55 1 1-1-1z"/>
  <path style="fill:#8f8f8f;stroke:none" d="m83 56 1 1-1-1m28 0 1 1-1-1z"/>
  <path style="fill:#626262;stroke:none" d="m82 57 1 1-1-1m30 0 1 1-1-1m-74 1 1 1-1-1z"/>
  <path style="fill:#ababab;stroke:none" d="m81 58 1 1-1-1z"/>
  <path style="fill:#626262;stroke:none" d="m113 58 1 1-1-1z"/>
  <path style="fill:#ababab;stroke:none" d="m37 59 1 1-1-1z"/>
  <path style="fill:#626262;stroke:none" d="m81 59 1 1-1-1z"/>
  <path style="fill:#ababab;stroke:none" d="m114 59 1 1-1-1z"/>
  <path style="fill:#626262;stroke:none" d="m37 60 1 1-1-1m77 0 1 1-1-1z"/>
  <path style="fill:#ababab;stroke:none" d="M115 62v43h1c0-12 4-32-1-43z"/>
  <path style="fill:#626262;stroke:none" d="m81 70 1 1-1-1z"/>
  <path style="fill:#ababab;stroke:none" d="m81 71 1 1-1-1z"/>
  <path style="fill:#8f8f8f;stroke:none" d="m82 72 1 1-1-1m1 1 1 1-1-1z"/>
  <path style="fill:#ababab;stroke:none" d="m85 74 1 1-1-1z"/>
  <path style="fill:#8f8f8f;stroke:none" d="m86 74 1 1-1-1z"/>
  <path style="fill:#626262;stroke:none" d="m87 74 1 1-1-1z"/>
  <path style="fill:#8f8f8f;stroke:none" d="m88 74 1 1-1-1z"/>
  <path style="fill:#626262;stroke:none" d="M90 74v1-1z"/>
  <path style="fill:#8f8f8f;stroke:none" d="m91 74 1 1-1-1z"/>
  <path style="fill:#626262;stroke:none" d="m92 74 1 1-1-1z"/>
  <path style="fill:#ababab;stroke:none" d="m94 75 1 1-1-1z"/>
  <path style="fill:#8f8f8f;stroke:none" d="m96 77 1 1-1-1m-32 3 1 1-1-1z"/>
  <path style="fill:#626262;stroke:none" d="M97 80v8h1l-1-8z"/>
  <path style="fill:#ababab;stroke:none" d="M64 81v5h1l-1-5z"/>
  <path style="fill:#8f8f8f;stroke:none" d="m64 86 1 1-1-1z"/>
  <path style="fill:#626262;stroke:none" d="m64 87 1 1-1-1z"/>
  <path style="fill:#8f8f8f;stroke:none" d="m65 89 1 1-1-1z"/>
  <path style="fill:#ababab;stroke:none" d="m96 89 1 1-1-1m-30 1 1 1-1-1z"/>
  <path style="fill:#626262;stroke:none" d="m96 90 1 1-1-1m-29 1 1 1-1-1m28 0 1 1-1-1m-26 1v1h22l-22-1z"/>
  <path style="fill:#8f8f8f;stroke:none" d="M92 92v1-1z"/>
  <path style="fill:#626262;stroke:none" d="m93 92 1 1-1-1m-56 7 1 1-1-1z"/>
  <path style="fill:#8f8f8f;stroke:none" d="m37 100 1 1-1-1z"/>
  <path style="fill:#ababab;stroke:none" d="m37 101 1 1-1-1z"/>
  <path style="fill:#626262;stroke:none" d="m38 102 1 1-1-1z"/>
  <path style="fill:#ababab;stroke:none" d="m38 103 1 1-1-1z"/>
  <path style="fill:#626262;stroke:none" d="m39 104 1 1-1-1z"/>
  <path style="fill:#ababab;stroke:none" d="m39 105 1 1-1-1m1 1 1 1-1-1z"/>
  <path style="fill:#626262;stroke:none" d="m114 106 1 1-1-1z"/>
  <path style="fill:#8f8f8f;stroke:none" d="m41 107 1 1-1-1z"/>
  <path style="fill:#ababab;stroke:none" d="m114 107 1 1-1-1m-72 1 1 1-1-1z"/>
  <path style="fill:#626262;stroke:none" d="m113 108 1 1-1-1m-69 1 1 1-1-1m68 0 1 1-1-1z"/>
  <path style="fill:#ababab;stroke:none" d="m45 110 1 1-1-1z"/>
  <path style="fill:#626262;stroke:none" d="m46 110 1 1-1-1m65 0 1 1-1-1z"/>
  <path style="fill:#8f8f8f;stroke:none" d="m48 111 1 1-1-1z"/>
  <path style="fill:#626262;stroke:none" d="M49 111v1h3l-3-1m4 0v1h54l-18-1H53m55 0 1 1-1-1z"/>
  <path style="fill:#8f8f8f;stroke:none" d="m109 111 1 1-1-1m-68 7 1 1-1-1z"/>
  <path style="fill:#626262;stroke:none" d="M42 118v1h3l-3-1z"/>
  <path style="fill:#8f8f8f;stroke:none" d="m45 118 2 2-2-2z"/>
  <path style="fill:#626262;stroke:none" d="M48 118v1h7l-7-1z"/>
  <path style="fill:#ababab;stroke:none" d="m55 118 1 1-1-1z"/>
  <path style="fill:#8f8f8f;stroke:none" d="m56 118-1 2 1-2z"/>
  <path style="fill:#626262;stroke:none" d="M57 118v1l7 1-7-2z"/>
  <path style="fill:#8f8f8f;stroke:none" d="m63 118 1 1-1-1z"/>
  <path style="fill:#626262;stroke:none" d="m65 120 3-1-3 1z"/>
  <path style="fill:#ababab;stroke:none" d="m71 118 1 1-1-1z"/>
  <path style="fill:#626262;stroke:none" d="M72 118v1h5l-5-1z"/>
  <path style="fill:#8f8f8f;stroke:none" d="m77 118 1 1-1-1z"/>
  <path style="fill:#ababab;stroke:none" d="m81 118-2 3 2-3z"/>
  <path style="fill:#8f8f8f;stroke:none" d="m82 118 1 1-1-1z"/>
  <path style="fill:#626262;stroke:none" d="m83 118 1 1-1-1z"/>
  <path style="fill:#050504;stroke:none" d="M79 124h-1l1-5h-7v7h-1l-3-7h-2l-4 9 3-4 3 2-2-5h1l6 7c0-4 0-7 5-6h-3l3 3-3 3h15l3-7 6 7v-8h4l-3 3 7 5v-8c5 2 3 4 1 8 4-1 8-6 3-8-4-2-10-1-14-1l1 7h-1l-3-7h-2l-1 4c-5-4-9-6-12 1z"/>
  <path style="fill:#626262;stroke:none" d="m85 118 1 1-1-1z"/>
  <path style="fill:#ababab;stroke:none" d="m86 118 1 1-1-1m5 0 1 1-1-1z"/>
  <path style="fill:#626262;stroke:none" d="M93 118v1-1z"/>
  <path style="fill:#8f8f8f;stroke:none" d="m97 118 1 1-1-1z"/>
  <path style="fill:#626262;stroke:none" d="M98 118v1h5l-5-1z"/>
  <path style="fill:#8f8f8f;stroke:none" d="m103 118 1 1-1-1z"/>
  <path style="fill:#626262;stroke:none" d="M105 118v1h5l-5-1z"/>
  <path style="fill:#8f8f8f;stroke:none" d="m110 118 1 1-1-1z"/>
  <path style="fill:#626262;stroke:none" d="m40 119 1 1-1-1z"/>
  <path style="fill:#050504;stroke:none" d="M47 123h-4v1h3c-4 4-6-2 0-4-13-5-1 17 1 3m1-4v9h10v-2h-8v-2h4v-2h-4v-2h5l-7-1m8 0v1h3l1 8h1l2-8-7-1z"/>
  <path style="fill:#8f8f8f;stroke:none" d="m68 119 1 1-1-1m3 0v4h1l-1-4z"/>
  <path style="fill:#626262;stroke:none" d="m87 119 1 1-1-1m4 0 1 1-1-1z"/>
  <path style="fill:#ababab;stroke:none" d="m94 119 1 1-1-1z"/>
  <path style="fill:#626262;stroke:none" d="m104 119 1 1-1-1z"/>
  <path style="fill:#ababab;stroke:none" d="m112 119 1 1-1-1m-70 1v1h3l-3-1z"/>
  <path style="fill:#626262;stroke:none" d="m45 120 1 1-1-1z"/>
  <path style="fill:#8f8f8f;stroke:none" d="m50 120 1 1-1-1z"/>
  <path style="fill:#ababab;stroke:none" d="M50 121v1l5-1h-5z"/>
  <path style="fill:#fefefe;stroke:none" d="M51 121v1h4l-4 2 8 2v-5h-8z"/>
  <path style="fill:#ababab;stroke:none" d="M56 120v1h3l-3-1z"/>
  <path style="fill:#8f8f8f;stroke:none" d="m61 120 1 1-1-1z"/>
  <path style="fill:#ababab;stroke:none" d="m62 120 1 1-1-1m13 0v1-1z"/>
  <path style="fill:#8f8f8f;stroke:none" d="m76 120 1 1-1-1z"/>
  <path style="fill:#626262;stroke:none" d="m82 120-1 2 1-2z"/>
  <path style="fill:#fefefe;stroke:none" d="M83 120c-3 8 8 3 0 0z"/>
  <path style="fill:#ababab;stroke:none" d="m85 120 1 1-1-1z"/>
  <path style="fill:#626262;stroke:none" d="m86 120 1 1-1-1m2 0 1 1-1-1m6 0 1 1-1-1m3 0v6h1l-1-6m2 0 1 1-1-1z"/>
  <path style="fill:#ababab;stroke:none" d="m100 120 1 1-1-1z"/>
  <path style="fill:#8f8f8f;stroke:none" d="m101 120 1 1-1-1z"/>
  <path style="fill:#626262;stroke:none" d="m102 120 1 1-1-1z"/>
  <path style="fill:#8f8f8f;stroke:none" d="m107 120 1 1-1-1z"/>
  <path style="fill:#ababab;stroke:none" d="m108 120-1 6h1v-6z"/>
  <path style="fill:#8f8f8f;stroke:none" d="m109 120 1 1-1-1z"/>
  <path style="fill:#626262;stroke:none" d="m110 120 2 2-2-2z"/>
  <path style="fill:#ababab;stroke:none" d="m113 120 1 1-1-1z"/>
  <path style="fill:#8f8f8f;stroke:none" d="m38 121 1 1-1-1z"/>
  <path style="fill:#ababab;stroke:none" d="M61 121v4h1l-1-4z"/>
  <path style="fill:#8f8f8f;stroke:none" d="m64 121 1 1-1-1z"/>
  <path style="fill:#626262;stroke:none" d="m66 121 1 1-1-1z"/>
  <path style="fill:#ababab;stroke:none" d="m69 121 1 1-1-1z"/>
  <path style="fill:#626262;stroke:none" d="m73 121 2 7-2-7z"/>
  <path style="fill:#fefefe;stroke:none" d="M74 121v1h3l-3-1z"/>
  <path style="fill:#626262;stroke:none" d="m77 121 1 1-1-1m2 0-1 3 1-3m8 0 1 1-1-1z"/>
  <path style="fill:#8f8f8f;stroke:none" d="m90 121-1 2 1-2z"/>
  <path style="fill:#626262;stroke:none" d="m92 121 1 1-1-1z"/>
  <path style="fill:#ababab;stroke:none" d="m95 121 1 1-1-1z"/>
  <path style="fill:#8f8f8f;stroke:none" d="M99 121v7h1l-1-7z"/>
  <path style="fill:#fefefe;stroke:none" d="m100 123 3-2-3 2m8-2v5l3-5h-3z"/>
  <path style="fill:#626262;stroke:none" d="m113 121 1 1-1-1m-75 2h1-1m2-1 1 1-1-1z"/>
  <path style="fill:#8f8f8f;stroke:none" d="M43 122v1h4l-4-1z"/>
  <path style="fill:#ababab;stroke:none" d="m47 122 1 1-1-1z"/>
  <path style="fill:#8f8f8f;stroke:none" d="m54 122 1 1-1-1z"/>
  <path style="fill:#ababab;stroke:none" d="m66 122 1 1-1-1z"/>
  <path style="fill:#8f8f8f;stroke:none" d="m67 122 1 1-1-1z"/>
  <path style="fill:#626262;stroke:none" d="m69 122 1 1-1-1z"/>
  <path style="fill:#8f8f8f;stroke:none" d="m74 122 1 1-1-1z"/>
  <path style="fill:#626262;stroke:none" d="m76 122 1 1-1-1z"/>
  <path style="fill:#ababab;stroke:none" d="m81 122 1 1-1-1z"/>
  <path style="fill:#8f8f8f;stroke:none" d="m87 122 1 1-1-1z"/>
  <path style="fill:#626262;stroke:none" d="m90 122 1 1-1-1z"/>
  <path style="fill:#fefefe;stroke:none" d="M92 123h1-1z"/>
  <path style="fill:#8f8f8f;stroke:none" d="m93 122 1 1-1-1z"/>
  <path style="fill:#626262;stroke:none" d="m95 122 1 1-1-1z"/>
  <path style="fill:#ababab;stroke:none" d="m102 122 1 1-1-1z"/>
  <path style="fill:#8f8f8f;stroke:none" d="m111 122 1 1-1-1m-71 1 1 1-1-1z"/>
  <path style="fill:#ababab;stroke:none" d="m42 123 1 1-1-1z"/>
  <path style="fill:#626262;stroke:none" d="M48 123v1-1z"/>
  <path style="fill:#ababab;stroke:none" d="m54 123 1 1-1-1m9 0 1 1-1-1z"/>
  <path style="fill:#fefefe;stroke:none" d="M67 123v1-1z"/>
  <path style="fill:#ababab;stroke:none" d="M71 124h1-1m16-1 1 1-1-1z"/>
  <path style="fill:#626262;stroke:none" d="m91 123 1 1-1-1z"/>
  <path style="fill:#ababab;stroke:none" d="m93 123 1 1-1-1m18 0 1 1-1-1z"/>
  <path style="fill:#8f8f8f;stroke:none" d="m38 124 1 1-1-1z"/>
  <path style="fill:#626262;stroke:none" d="m40 124 1 1-1-1z"/>
  <path style="fill:#8f8f8f;stroke:none" d="m43 124 1 1-1-1z"/>
  <path style="fill:#ababab;stroke:none" d="m44 124 1 1-1-1z"/>
  <path style="fill:#626262;stroke:none" d="M45 125h1-1z"/>
  <path style="fill:#8f8f8f;stroke:none" d="M47 124v3h1l-1-3m3 0 1 1-1-1z"/>
  <path style="fill:#ababab;stroke:none" d="M53 124v1-1z"/>
  <path style="fill:#626262;stroke:none" d="m63 124 1 1-1-1m2 0 1 1-1-1m3 0v1-1m2 0 1 1-1-1z"/>
  <path style="fill:#fefefe;stroke:none" d="m74 124 3 2-3-2z"/>
  <path style="fill:#ababab;stroke:none" d="m76 124 1 1-1-1z"/>
  <path style="fill:#626262;stroke:none" d="m77 124 1 1-1-1z"/>
  <path style="fill:#8f8f8f;stroke:none" d="m81 124 1 1-1-1z"/>
  <path style="fill:#626262;stroke:none" d="m87 124 1 1-1-1z"/>
  <path style="fill:#8f8f8f;stroke:none" d="m91 124 1 1-1-1z"/>
  <path style="fill:#050504;stroke:none" d="M92 125h1-1z"/>
  <path style="fill:#626262;stroke:none" d="M93 124v2l2-2h-2z"/>
  <path style="fill:#8f8f8f;stroke:none" d="m96 124 1 1-1-1z"/>
  <path style="fill:#626262;stroke:none" d="m100 124 1 1-1-1m3 0 1 1-1-1z"/>
  <path style="fill:#fefefe;stroke:none" d="M104 125h1-1z"/>
  <path style="fill:#8f8f8f;stroke:none" d="m111 124 1 1-1-1z"/>
  <path style="fill:#ababab;stroke:none" d="m38 125 1 1-1-1z"/>
  <path style="fill:#626262;stroke:none" d="m41 125 1 1-1-1m7 0 1 1-1-1z"/>
  <path style="fill:#ababab;stroke:none" d="m50 125 1 1-1-1m15 0 1 1-1-1m3 0 1 1-1-1z"/>
  <path style="fill:#626262;stroke:none" d="m71 125 1 1-1-1z"/>
  <path style="fill:#8f8f8f;stroke:none" d="m77 125 1 1-1-1z"/>
  <path style="fill:#ababab;stroke:none" d="m82 125 1 1-1-1z"/>
  <path style="fill:#8f8f8f;stroke:none" d="m86 125 1 1-1-1z"/>
  <path style="fill:#ababab;stroke:none" d="m91 125 1 1-1-1m3 0 1 1-1-1z"/>
  <path style="fill:#626262;stroke:none" d="m101 125 1 1-1-1z"/>
  <path style="fill:#8f8f8f;stroke:none" d="m110 125 1 1-1-1m3 0 1 1-1-1m-74 1 1 1-1-1z"/>
  <path style="fill:#626262;stroke:none" d="m43 126 1 1-1-1z"/>
  <path style="fill:#8f8f8f;stroke:none" d="M58 127h1-1z"/>
  <path style="fill:#ababab;stroke:none" d="M61 127h1-1z"/>
  <path style="fill:#8f8f8f;stroke:none" d="m62 126 1 1-1-1z"/>
  <path style="fill:#626262;stroke:none" d="m64 126 1 1-1-1z"/>
  <path style="fill:#ababab;stroke:none" d="m66 126 1 1-1-1z"/>
  <path style="fill:#8f8f8f;stroke:none" d="m74 126 1 1-1-1z"/>
  <path style="fill:#626262;stroke:none" d="m79 126 1 1-1-1z"/>
  <path style="fill:#8f8f8f;stroke:none" d="m80 126 1 1-1-1z"/>
  <path style="fill:#626262;stroke:none" d="M84 126v1-1z"/>
  <path style="fill:#8f8f8f;stroke:none" d="m90 126 1 1-1-1z"/>
  <path style="fill:#ababab;stroke:none" d="m92 126 1 1-1-1z"/>
  <path style="fill:#626262;stroke:none" d="m104 126 1 1-1-1m3 1h1-1m5-1 1 1-1-1z"/>
  <path style="fill:#ababab;stroke:none" d="m40 127 1 1-1-1z"/>
  <path style="fill:#8f8f8f;stroke:none" d="m46 127 1 1-1-1z"/>
  <path style="fill:#626262;stroke:none" d="m59 127 1 1-1-1z"/>
  <path style="fill:#ababab;stroke:none" d="m64 127 1 1-1-1z"/>
  <path style="fill:#8f8f8f;stroke:none" d="m69 127 1 1-1-1z"/>
  <path style="fill:#626262;stroke:none" d="m78 127 1 1-1-1z"/>
  <path style="fill:#ababab;stroke:none" d="m81 127 1 1-1-1z"/>
  <path style="fill:#626262;stroke:none" d="m82 127 1 1-1-1m4 0 1 1-1-1z"/>
  <path style="fill:#ababab;stroke:none" d="m87 127 1 1-1-1z"/>
  <path style="fill:#626262;stroke:none" d="m95 127 1 1-1-1z"/>
  <path style="fill:#ababab;stroke:none" d="m102 127 1 1-1-1z"/>
  <path style="fill:#8f8f8f;stroke:none" d="m111 127 1 1-1-1z"/>
  <path style="fill:#ababab;stroke:none" d="m43 128 1 1-1-1m41 0 1 1-1-1z"/>
</svg>
