<svg xmlns="http://www.w3.org/2000/svg" width="62" height="57">
  <path style="fill:#212a39;stroke:none" d="M0 0v57h62V0H0z"/>
  <path style="fill:#dee2e9;stroke:none" d="m11 8 4 26c0 2 0 7 3 9s6-5 7-7c6-9 12-18 16-28-11 2-14 23-22 30 0-7 0-29-8-30z"/>
  <path style="fill:#aab0b8;stroke:none" d="M15 9h1-1m21-1 1 1-1-1z"/>
  <path style="fill:#666c75;stroke:none" d="m41 8 1 1-1-1z"/>
  <path style="fill:#aab0b8;stroke:none" d="M11 10h1-1z"/>
  <path style="fill:#8e939c;stroke:none" d="m35 9 1 1-1-1z"/>
  <path style="fill:#aab0b8;stroke:none" d="m40 9 1 1-1-1z"/>
  <path style="fill:#666c75;stroke:none" d="M16 10v3h1l-1-3m24 0 1 1-1-1z"/>
  <path style="fill:#8e939c;stroke:none" d="M11 12h1-1m23-1 1 1-1-1z"/>
  <path style="fill:#aab0b8;stroke:none" d="m39 11 1 1-1-1z"/>
  <path style="fill:#666c75;stroke:none" d="m33 12 1 1-1-1m6 0 1 1-1-1m-28 2h1-1z"/>
  <path style="fill:#8e939c;stroke:none" d="M16 14h1-1z"/>
  <path style="fill:#aab0b8;stroke:none" d="m33 13 1 1-1-1z"/>
  <path style="fill:#8e939c;stroke:none" d="m38 13 1 1-1-1z"/>
  <path style="fill:#666c75;stroke:none" d="m32 14 1 1-1-1z"/>
  <path style="fill:#aab0b8;stroke:none" d="m37 14 1 1-1-1m-21 2h1-1m16-1 1 1-1-1z"/>
  <path style="fill:#666c75;stroke:none" d="m37 15 1 1-1-1z"/>
  <path style="fill:#aab0b8;stroke:none" d="M12 17h1-1z"/>
  <path style="fill:#666c75;stroke:none" d="m31 16 1 1-1-1z"/>
  <path style="fill:#aab0b8;stroke:none" d="m36 16 1 1-1-1m-5 1 1 1-1-1z"/>
  <path style="fill:#666c75;stroke:none" d="m36 17 1 1-1-1z"/>
  <path style="fill:#8e939c;stroke:none" d="M12 19h1-1z"/>
  <path style="fill:#666c75;stroke:none" d="M17 19h1-1z"/>
  <path style="fill:#8e939c;stroke:none" d="m30 18 1 1-1-1m5 0 1 1-1-1z"/>
  <path style="fill:#666c75;stroke:none" d="m43 18 1 1-1-1z"/>
  <path style="fill:#aab0b8;stroke:none" d="m44 18 1 1-1-1z"/>
  <path style="fill:#dee2e9;stroke:none" d="M36 43c5 1 20 1 15-9-2-3-8-6-7-10 2-4 8-2 10-5-6-1-18 0-14 9 2 3 8 6 7 10-2 4-8 1-11 5z"/>
  <path style="fill:#aab0b8;stroke:none" d="m51 18 1 1-1-1z"/>
  <path style="fill:#8e939c;stroke:none" d="m52 18 1 1-1-1z"/>
  <path style="fill:#666c75;stroke:none" d="m53 18 1 1-1-1m-12 1 1 1-1-1z"/>
  <path style="fill:#aab0b8;stroke:none" d="m42 19 1 1-1-1z"/>
  <path style="fill:#666c75;stroke:none" d="M54 20h1-1m-42 1h1-1z"/>
  <path style="fill:#8e939c;stroke:none" d="M17 21h1-1m12-1 1 1-1-1m5 0 1 1-1-1z"/>
  <path style="fill:#666c75;stroke:none" d="m40 20 1 1-1-1m-12 1 1 1-1-1z"/>
  <path style="fill:#aab0b8;stroke:none" d="m33 21 1 1-1-1m7 0 1 1-1-1m5 0 1 1-1-1z"/>
  <path style="fill:#666c75;stroke:none" d="m46 21 1 1-1-1m3 0 1 1-1-1z"/>
  <path style="fill:#aab0b8;stroke:none" d="m50 21 1 1-1-1m3 0-1 2 1-2m-40 1v3h1l-1-3m4 1h1-1m11-1 1 1-1-1z"/>
  <path style="fill:#666c75;stroke:none" d="m33 22 1 1-1-1z"/>
  <path style="fill:#8e939c;stroke:none" d="m39 22 1 1-1-1m5 0 1 1-1-1z"/>
  <path style="fill:#666c75;stroke:none" d="m51 22 1 1-1-1z"/>
  <path style="fill:#8e939c;stroke:none" d="m53 22 1 1-1-1z"/>
  <path style="fill:#666c75;stroke:none" d="m27 23 1 1-1-1z"/>
  <path style="fill:#aab0b8;stroke:none" d="m32 23 1 1-1-1m7 0 1 1-1-1m4 0 1 1-1-1m-16 1 1 1-1-1z"/>
  <path style="fill:#666c75;stroke:none" d="m32 24 1 1-1-1m6 0v3h1l-1-3z"/>
  <path style="fill:#8e939c;stroke:none" d="M43 25h1-1m-30 1h1-1z"/>
  <path style="fill:#666c75;stroke:none" d="M18 26h1-1z"/>
  <path style="fill:#8e939c;stroke:none" d="m26 25 1 1-1-1m5 0 1 1-1-1z"/>
  <path style="fill:#aab0b8;stroke:none" d="m26 26 1 1-1-1m4 0 1 1-1-1m13 0 1 1-1-1z"/>
  <path style="fill:#666c75;stroke:none" d="M13 28h1-1z"/>
  <path style="fill:#8e939c;stroke:none" d="M18 28h1-1m7-1 1 1-1-1m5 0 1 1-1-1z"/>
  <path style="fill:#aab0b8;stroke:none" d="m39 27 1 1-1-1z"/>
  <path style="fill:#666c75;stroke:none" d="m44 27 1 1-1-1z"/>
  <path style="fill:#aab0b8;stroke:none" d="m29 28 1 1-1-1z"/>
  <path style="fill:#8e939c;stroke:none" d="m39 28 1 1-1-1m6 0 1 1-1-1z"/>
  <path style="fill:#aab0b8;stroke:none" d="M18 29v3h1l-1-3z"/>
  <path style="fill:#8e939c;stroke:none" d="m24 29 1 1-1-1z"/>
  <path style="fill:#666c75;stroke:none" d="m29 29 1 1-1-1z"/>
  <path style="fill:#aab0b8;stroke:none" d="m40 29 1 1-1-1m6 0 1 1-1-1z"/>
  <path style="fill:#666c75;stroke:none" d="m47 29 1 1-1-1z"/>
  <path style="fill:#aab0b8;stroke:none" d="m14 30 1 1-1-1z"/>
  <path style="fill:#666c75;stroke:none" d="m23 30 1 1-1-1z"/>
  <path style="fill:#8e939c;stroke:none" d="m28 30 1 1-1-1z"/>
  <path style="fill:#aab0b8;stroke:none" d="m41 30 1 1-1-1z"/>
  <path style="fill:#8e939c;stroke:none" d="m48 30 1 1-1-1m-34 2h1-1z"/>
  <path style="fill:#aab0b8;stroke:none" d="m23 31 1 1-1-1z"/>
  <path style="fill:#666c75;stroke:none" d="m28 31 1 1-1-1z"/>
  <path style="fill:#aab0b8;stroke:none" d="m42 31 1 1-1-1m7 0 1 1-1-1z"/>
  <path style="fill:#666c75;stroke:none" d="M19 32v3h1l-1-3m3 0 1 1-1-1z"/>
  <path style="fill:#8e939c;stroke:none" d="m27 32 1 1-1-1z"/>
  <path style="fill:#666c75;stroke:none" d="m43 32 1 1-1-1z"/>
  <path style="fill:#aab0b8;stroke:none" d="m50 32 1 1-1-1z"/>
  <path style="fill:#666c75;stroke:none" d="M14 33v3h1l-1-3z"/>
  <path style="fill:#aab0b8;stroke:none" d="m22 33 1 1-1-1m4 0 1 1-1-1m19 0 1 1-1-1z"/>
  <path style="fill:#8e939c;stroke:none" d="m51 33 1 1-1-1z"/>
  <path style="fill:#666c75;stroke:none" d="m21 34 1 1-1-1m5 0 1 1-1-1z"/>
  <path style="fill:#8e939c;stroke:none" d="m46 34 1 1-1-1m-27 1v2h2l-2-2z"/>
  <path style="fill:#aab0b8;stroke:none" d="m21 35 1 1-1-1m4 0 1 1-1-1m22 0 1 1-1-1z"/>
  <path style="fill:#666c75;stroke:none" d="M52 35v4h1l-1-4z"/>
  <path style="fill:#aab0b8;stroke:none" d="M15 37h1-1z"/>
  <path style="fill:#666c75;stroke:none" d="m25 36 1 1-1-1z"/>
  <path style="fill:#8e939c;stroke:none" d="M47 36v3h1l-1-3z"/>
  <path style="fill:#aab0b8;stroke:none" d="M20 37v1-1z"/>
  <path style="fill:#8e939c;stroke:none" d="m24 37 1 1-1-1m-9 2h1-1m8 0 1 1-1-1z"/>
  <path style="fill:#aab0b8;stroke:none" d="M36 39v2l2-2h-2z"/>
  <path style="fill:#666c75;stroke:none" d="m38 39 1 1-1-1m8 0 1 1-1-1z"/>
  <path style="fill:#aab0b8;stroke:none" d="m51 39 1 1-1-1z"/>
  <path style="fill:#666c75;stroke:none" d="M15 41h1-1z"/>
  <path style="fill:#aab0b8;stroke:none" d="m22 40 1 1-1-1z"/>
  <path style="fill:#8e939c;stroke:none" d="m40 40 1 1-1-1z"/>
  <path style="fill:#666c75;stroke:none" d="m41 40 1 1-1-1m3 0 1 1-1-1z"/>
  <path style="fill:#aab0b8;stroke:none" d="m45 40 1 1-1-1z"/>
  <path style="fill:#666c75;stroke:none" d="m51 40 1 1-1-1m-29 1 1 1-1-1m13 1h1-1m15-1 1 1-1-1z"/>
  <path style="fill:#aab0b8;stroke:none" d="m21 42 1 1-1-1m27 0 1 1-1-1z"/>
  <path style="fill:#666c75;stroke:none" d="m49 42 1 1-1-1z"/>
  <path style="fill:#aab0b8;stroke:none" d="m16 43 1 1-1-1z"/>
  <path style="fill:#666c75;stroke:none" d="m21 43 1 1-1-1z"/>
  <path style="fill:#8e939c;stroke:none" d="m37 43 1 1-1-1z"/>
  <path style="fill:#aab0b8;stroke:none" d="m38 43 1 1-1-1m8 0 1 1-1-1z"/>
  <path style="fill:#666c75;stroke:none" d="m47 43 1 1-1-1z"/>
</svg>
