<svg xmlns="http://www.w3.org/2000/svg" width="150" height="150">
  <path style="fill:#fdfdfd;stroke:none" d="M0 0v150h150V0H0z"/>
  <path style="fill:#a2a2a2;stroke:none" d="m103 30-1 3h1v-3z"/>
  <path style="fill:#5f5f5f;stroke:none" d="M104 30v1h4l-4-1z"/>
  <path style="fill:#a2a2a2;stroke:none" d="m108 30 1 1-1-1m-27 1v1-1z"/>
  <path style="fill:#5f5f5f;stroke:none" d="M83 31v1-1z"/>
  <path style="fill:#2f2f2f;stroke:none" d="M84 31v1h4l-4-1z"/>
  <path style="fill:#050505;stroke:none" d="M77 48h1v-6l2-1h1c0 10 4 22 15 27-1-6-7-11-6-18 1-5 10-7 7-14-3-5-16-7-20-2-3 3 0 10 0 14z"/>
  <path style="fill:#2f2f2f;stroke:none" d="m90 31 1 1-1-1z"/>
  <path style="fill:#5f5f5f;stroke:none" d="m91 31 1 1-1-1z"/>
  <path style="fill:#a2a2a2;stroke:none" d="M93 31v1-1z"/>
  <path style="fill:#050505;stroke:none" d="m103 31 1 39 4-5h3c-2-11 10-34-8-34z"/>
  <path style="fill:#2f2f2f;stroke:none" d="m110 31 1 1-1-1z"/>
  <path style="fill:#a2a2a2;stroke:none" d="m111 31 1 1-1-1m-35 1 1 1-1-1z"/>
  <path style="fill:#5f5f5f;stroke:none" d="m77 32 1 1-1-1m17 0 1 1-1-1m18 0 1 1-1-1z"/>
  <path style="fill:#a2a2a2;stroke:none" d="m56 33 1 1-1-1m4 0v1-1z"/>
  <path style="fill:#5f5f5f;stroke:none" d="m75 33 1 1-1-1m20 0 1 1-1-1m7 0 1 1-1-1z"/>
  <path style="fill:#a2a2a2;stroke:none" d="m113 33 1 1-1-1m-60 1v1-1z"/>
  <path style="fill:#2f2f2f;stroke:none" d="m54 34 1 1-1-1z"/>
  <path style="fill:#050505;stroke:none" d="m65 70 3-6-1-4-2-3h-1c-5 14-15 7-12-5 1-6 10-18 12-6l4 1c0-10-7-18-17-10-11 8-8 24 2 31 4 3 8 2 12 2z"/>
  <path style="fill:#5f5f5f;stroke:none" d="m62 34 1 1-1-1z"/>
  <path style="fill:#a2a2a2;stroke:none" d="m63 34 1 1-1-1z"/>
  <path style="fill:#2f2f2f;stroke:none" d="M75 35h1-1z"/>
  <path style="fill:#a2a2a2;stroke:none" d="m96 34 1 1-1-1m6 0v4h1l-1-4z"/>
  <path style="fill:#5f5f5f;stroke:none" d="M113 35h1-1m-62 0 1 1-1-1z"/>
  <path style="fill:#2f2f2f;stroke:none" d="m64 35 1 1-1-1z"/>
  <path style="fill:#a2a2a2;stroke:none" d="m65 35 1 1-1-1m32 0 1 1-1-1z"/>
  <path style="fill:#2f2f2f;stroke:none" d="m50 36 1 1-1-1z"/>
  <path style="fill:#a2a2a2;stroke:none" d="m66 36 1 1-1-1m9 0v5h1l-1-5z"/>
  <path style="fill:#5f5f5f;stroke:none" d="m97 36 1 1-1-1z"/>
  <path style="fill:#2f2f2f;stroke:none" d="M113 37h1-1z"/>
  <path style="fill:#5f5f5f;stroke:none" d="m49 37 1 1-1-1z"/>
  <path style="fill:#a2a2a2;stroke:none" d="m67 37 1 1-1-1m-39 1v1h3l-3-1z"/>
  <path style="fill:#5f5f5f;stroke:none" d="M32 38v1-1z"/>
  <path style="fill:#2f2f2f;stroke:none" d="M34 38v1-1z"/>
  <path style="fill:#050505;stroke:none" d="m20 49 3 29c9-7 7-20 7-30l8-2-1-4 3-1-1-3c-7 1-15 0-22 3-5 2 0 7 3 8z"/>
  <path style="fill:#2f2f2f;stroke:none" d="M37 38v1-1m2 1h1-1z"/>
  <path style="fill:#a2a2a2;stroke:none" d="m48 38 1 1-1-1m20 0c1 3 2 9-2 8v1h4l2 5-4 1v1l1 3h3c0-7 2-14-4-19m30 0 1 1-1-1z"/>
  <path style="fill:#5f5f5f;stroke:none" d="M113 38v3h1l-1-3z"/>
  <path style="fill:#a2a2a2;stroke:none" d="M22 39v1-1z"/>
  <path style="fill:#5f5f5f;stroke:none" d="M24 39v1-1z"/>
  <path style="fill:#2f2f2f;stroke:none" d="M26 39v1-1z"/>
  <path style="fill:#a2a2a2;stroke:none" d="m47 39 1 1-1-1z"/>
  <path style="fill:#2f2f2f;stroke:none" d="m58 39 1 1-1-1z"/>
  <path style="fill:#a2a2a2;stroke:none" d="M60 39v1-1z"/>
  <path style="fill:#2f2f2f;stroke:none" d="m61 39 2 2-2-2m7 0v5h1l-1-5m16 0 1 1-1-1z"/>
  <path style="fill:#5f5f5f;stroke:none" d="M85 39v1h3l-3-1z"/>
  <path style="fill:#a2a2a2;stroke:none" d="M88 39v1h4l-4-1m14 0v6h1l-1-6m-86 1v1-1z"/>
  <path style="fill:#5f5f5f;stroke:none" d="M18 40v1-1z"/>
  <path style="fill:#2f2f2f;stroke:none" d="m19 40 1 1-1-1z"/>
  <path style="fill:#a2a2a2;stroke:none" d="m46 40 1 1-1-1z"/>
  <path style="fill:#fdfdfd;stroke:none" d="M58 40c-2 4-5 7-6 12-1 9 3 16 11 9l2-8h1v5h1l3-11-12-7z"/>
  <path style="fill:#a2a2a2;stroke:none" d="m84 40 1 1-1-1z"/>
  <path style="fill:#fdfdfd;stroke:none" d="m84 41 1 3 6-3h-7z"/>
  <path style="fill:#5f5f5f;stroke:none" d="m91 40 1 1-1-1z"/>
  <path style="fill:#a2a2a2;stroke:none" d="m98 40 1 1-1-1m-85 1 1 1-1-1z"/>
  <path style="fill:#2f2f2f;stroke:none" d="m14 41 1 1-1-1m24 0-1 3 1-3z"/>
  <path style="fill:#a2a2a2;stroke:none" d="M39 42h1-1z"/>
  <path style="fill:#2f2f2f;stroke:none" d="m46 41 1 1-1-1z"/>
  <path style="fill:#5f5f5f;stroke:none" d="m57 41 1 1-1-1z"/>
  <path style="fill:#a2a2a2;stroke:none" d="m62 41 1 1-1-1z"/>
  <path style="fill:#fdfdfd;stroke:none" d="M69 42h1-1z"/>
  <path style="fill:#a2a2a2;stroke:none" d="M76 41v5h1l-1-5z"/>
  <path style="fill:#2f2f2f;stroke:none" d="m80 41 1 1-1-1z"/>
  <path style="fill:#5f5f5f;stroke:none" d="m90 41 1 1-1-1m7 0-2 5 2-5z"/>
  <path style="fill:#a2a2a2;stroke:none" d="M113 41v3h1l-1-3z"/>
  <path style="fill:#5f5f5f;stroke:none" d="M13 43h1-1z"/>
  <path style="fill:#a2a2a2;stroke:none" d="m45 42 1 1-1-1z"/>
  <path style="fill:#2f2f2f;stroke:none" d="m56 42 1 1-1-1z"/>
  <path style="fill:#a2a2a2;stroke:none" d="m57 42 1 1-1-1z"/>
  <path style="fill:#2f2f2f;stroke:none" d="m63 42 1 1-1-1m15 0 1 1-1-1z"/>
  <path style="fill:#a2a2a2;stroke:none" d="m80 42-1 5h1v-5m4 1h1-1m4-1 1 1-1-1m8 0 1 1-1-1m2 0 1 1-1-1z"/>
  <path style="fill:#5f5f5f;stroke:none" d="m39 43-2 4h1l1-4z"/>
  <path style="fill:#a2a2a2;stroke:none" d="m56 43 1 1-1-1z"/>
  <path style="fill:#5f5f5f;stroke:none" d="m63 43 1 1-1-1z"/>
  <path style="fill:#fdfdfd;stroke:none" d="m70 43 1 1-1-1z"/>
  <path style="fill:#5f5f5f;stroke:none" d="m78 43 2 5-2-5z"/>
  <path style="fill:#2f2f2f;stroke:none" d="M83 44h1-1z"/>
  <path style="fill:#a2a2a2;stroke:none" d="m86 43 1 1-1-1z"/>
  <path style="fill:#2f2f2f;stroke:none" d="m87 43 1 1-1-1m9 0 1 1-1-1z"/>
  <path style="fill:#a2a2a2;stroke:none" d="m13 44 1 1-1-1m26 0 1 1-1-1z"/>
  <path style="fill:#5f5f5f;stroke:none" d="m44 44 1 1-1-1z"/>
  <path style="fill:#a2a2a2;stroke:none" d="m55 44 1 1-1-1m8 0 1 1-1-1z"/>
  <path style="fill:#5f5f5f;stroke:none" d="m68 44 1 1-1-1m13 1h1-1m3-1 1 1-1-1z"/>
  <path style="fill:#a2a2a2;stroke:none" d="m97 44 1 1-1-1z"/>
  <path style="fill:#5f5f5f;stroke:none" d="m54 45 1 1-1-1z"/>
  <path style="fill:#a2a2a2;stroke:none" d="m96 45 1 1-1-1z"/>
  <path style="fill:#5f5f5f;stroke:none" d="M102 45v6h1l-1-6m-88 1 1 1-1-1z"/>
  <path style="fill:#a2a2a2;stroke:none" d="m38 46 1 1-1-1m5 0 1 1-1-1z"/>
  <path style="fill:#2f2f2f;stroke:none" d="m53 46 1 1-1-1z"/>
  <path style="fill:#5f5f5f;stroke:none" d="m64 46 1 1-1-1z"/>
  <path style="fill:#2f2f2f;stroke:none" d="m65 46 1 1-1-1z"/>
  <path style="fill:#5f5f5f;stroke:none" d="m80 46 1 1-1-1z"/>
  <path style="fill:#2f2f2f;stroke:none" d="m90 49 3-3-3 3z"/>
  <path style="fill:#5f5f5f;stroke:none" d="m93 46-2 3 2-3m-78 1 1 1-1-1z"/>
  <path style="fill:#2f2f2f;stroke:none" d="m33 47 1 1-1-1z"/>
  <path style="fill:#5f5f5f;stroke:none" d="m34 47 1 1-1-1z"/>
  <path style="fill:#a2a2a2;stroke:none" d="M36 47v1-1z"/>
  <path style="fill:#5f5f5f;stroke:none" d="m43 47 1 1-1-1z"/>
  <path style="fill:#a2a2a2;stroke:none" d="m53 47 1 1-1-1m23 0v1-1m17 0-1 2h2l-1-2m2 0 1 1-1-1z"/>
  <path style="fill:#2f2f2f;stroke:none" d="M112 47v3h1l-1-3m-96 1 2 2-2-2m14 0 1 1-1-1z"/>
  <path style="fill:#a2a2a2;stroke:none" d="m31 48 1 1-1-1z"/>
  <path style="fill:#2f2f2f;stroke:none" d="m43 48 1 1-1-1z"/>
  <path style="fill:#5f5f5f;stroke:none" d="m52 48 1 1-1-1m23 0 2 4h1l-3-4z"/>
  <path style="fill:#2f2f2f;stroke:none" d="M77 48v1-1z"/>
  <path style="fill:#a2a2a2;stroke:none" d="M78 48v4h-1l-1-3h-1v10h1v-6l2 4v10l4-3c0 4-1 6-5 8v1l9-5-1-5-1-1-2 1-1-1v-4l6 2v-1l-2-3h-5v-8h-2z"/>
  <path style="fill:#2f2f2f;stroke:none" d="M104 48v7l2-7h-2z"/>
  <path style="fill:#a2a2a2;stroke:none" d="m16 49 1 1-1-1z"/>
  <path style="fill:#5f5f5f;stroke:none" d="m18 49 1 1-1-1z"/>
  <path style="fill:#a2a2a2;stroke:none" d="m19 49 1 1-1-1z"/>
  <path style="fill:#5f5f5f;stroke:none" d="M30 49v4h1l-1-4z"/>
  <path style="fill:#a2a2a2;stroke:none" d="M42 49v3h1l-1-3m10 0 1 1-1-1z"/>
  <path style="fill:#5f5f5f;stroke:none" d="M70 50h1-1z"/>
  <path style="fill:#050505;stroke:none" d="M77 50h1-1z"/>
  <path style="fill:#2f2f2f;stroke:none" d="m89 49 1 1-1-1z"/>
  <path style="fill:#a2a2a2;stroke:none" d="M69 51h1-1z"/>
  <path style="fill:#5f5f5f;stroke:none" d="m112 50 1 1-1-1z"/>
  <path style="fill:#2f2f2f;stroke:none" d="m51 51 1 1-1-1m19 0 1 1-1-1z"/>
  <path style="fill:#fdfdfd;stroke:none" d="m71 51 1 1-1-1z"/>
  <path style="fill:#5f5f5f;stroke:none" d="m80 51 1 1-1-1m10 0 1 1-1-1z"/>
  <path style="fill:#2f2f2f;stroke:none" d="M102 51v7h1l-1-7z"/>
  <path style="fill:#5f5f5f;stroke:none" d="M104 51v3h1l-1-3z"/>
  <path style="fill:#a2a2a2;stroke:none" d="m112 51 1 1-1-1z"/>
  <path style="fill:#5f5f5f;stroke:none" d="m43 52 1 1-1-1m8 1h1-1m19-1v1-1z"/>
  <path style="fill:#2f2f2f;stroke:none" d="M90 52v4h1l-1-4z"/>
  <path style="fill:#a2a2a2;stroke:none" d="m91 52 1 1-1-1z"/>
  <path style="fill:#5f5f5f;stroke:none" d="m112 52 1 1-1-1z"/>
  <path style="fill:#2f2f2f;stroke:none" d="m30 53 1 1-1-1z"/>
  <path style="fill:#a2a2a2;stroke:none" d="M43 53v3h1l-1-3m22 0 1 1-1-1z"/>
  <path style="fill:#5f5f5f;stroke:none" d="m76 53 2 2-2-2m15 1h1-1z"/>
  <path style="fill:#a2a2a2;stroke:none" d="M112 53v3h1l-1-3z"/>
  <path style="fill:#5f5f5f;stroke:none" d="m30 54 1 1-1-1z"/>
  <path style="fill:#a2a2a2;stroke:none" d="M51 54v4h1l-1-4z"/>
  <path style="fill:#5f5f5f;stroke:none" d="m65 54-2 6h1l1-6m3 0 1 6-3-1v1c2 0 7-2 3-3l1-3h-2m3 1h1-1z"/>
  <path style="fill:#2f2f2f;stroke:none" d="m76 54 2 2-2-2m5 0 1 1-1-1z"/>
  <path style="fill:#a2a2a2;stroke:none" d="m92 54 4 8 1-1-5-7z"/>
  <path style="fill:#2f2f2f;stroke:none" d="m30 55 1 1-1-1z"/>
  <path style="fill:#a2a2a2;stroke:none" d="m63 55 1 1-1-1z"/>
  <path style="fill:#2f2f2f;stroke:none" d="m65 55-1 2h2l-1-2z"/>
  <path style="fill:#a2a2a2;stroke:none" d="M67 56h1-1z"/>
  <path style="fill:#050505;stroke:none" d="m76 55 1 17 5-6h-1l-3 3 2-9v-2l-4-3z"/>
  <path style="fill:#fdfdfd;stroke:none" d="m78 55 1 1-1-1z"/>
  <path style="fill:#5f5f5f;stroke:none" d="M80 55v1h4l-4-1z"/>
  <path style="fill:#2f2f2f;stroke:none" d="m84 55 1 1-1-1m27 0 1 1-1-1m-91 1v3h1l-1-3z"/>
  <path style="fill:#5f5f5f;stroke:none" d="M30 56v5h1l-1-5m61 1h1-1m20-1-1 6 1-6m-67 1 1 1-1-1z"/>
  <path style="fill:#a2a2a2;stroke:none" d="M65 57v2h2l-2-2z"/>
  <path style="fill:#2f2f2f;stroke:none" d="M79 57v1-1z"/>
  <path style="fill:#fdfdfd;stroke:none" d="m84 57 1 1-1-1z"/>
  <path style="fill:#5f5f5f;stroke:none" d="m85 57 1 1-1-1z"/>
  <path style="fill:#2f2f2f;stroke:none" d="m110 57 1 1-1-1z"/>
  <path style="fill:#a2a2a2;stroke:none" d="m112 57-1 9h1v-9m-67 1 1 1-1-1z"/>
  <path style="fill:#5f5f5f;stroke:none" d="M51 59h1-1z"/>
  <path style="fill:#a2a2a2;stroke:none" d="m62 58 1 1-1-1z"/>
  <path style="fill:#2f2f2f;stroke:none" d="m67 58 1 1-1-1z"/>
  <path style="fill:#a2a2a2;stroke:none" d="M68 59h1-1z"/>
  <path style="fill:#5f5f5f;stroke:none" d="M81 58v4h1l-1-4z"/>
  <path style="fill:#2f2f2f;stroke:none" d="m86 58 1 1-1-1m5 0 1 1-1-1z"/>
  <path style="fill:#5f5f5f;stroke:none" d="M102 59h1-1m-82 0v5h1l-1-5m26 0 1 1-1-1z"/>
  <path style="fill:#2f2f2f;stroke:none" d="m65 59 1 1-1-1z"/>
  <path style="fill:#a2a2a2;stroke:none" d="m70 59-1 2h2l-1-2z"/>
  <path style="fill:#2f2f2f;stroke:none" d="m92 59 1 1-1-1z"/>
  <path style="fill:#5f5f5f;stroke:none" d="M93 60h1-1z"/>
  <path style="fill:#2f2f2f;stroke:none" d="m110 59 1 1-1-1z"/>
  <path style="fill:#a2a2a2;stroke:none" d="m52 60 1 1-1-1m15 1h1-1z"/>
  <path style="fill:#5f5f5f;stroke:none" d="m78 60 1 1-1-1z"/>
  <path style="fill:#2f2f2f;stroke:none" d="m79 60 1 1-1-1z"/>
  <path style="fill:#a2a2a2;stroke:none" d="m83 60 1 1-1-1z"/>
  <path style="fill:#2f2f2f;stroke:none" d="m88 60 2 5h1l-3-5z"/>
  <path style="fill:#a2a2a2;stroke:none" d="M102 60v3h1l-1-3m-72 1v9h1l-1-9m15 0 1 1-1-1z"/>
  <path style="fill:#2f2f2f;stroke:none" d="m47 61 1 1-1-1z"/>
  <path style="fill:#5f5f5f;stroke:none" d="M52 62h1-1z"/>
  <path style="fill:#a2a2a2;stroke:none" d="m61 61 1 1-1-1z"/>
  <path style="fill:#5f5f5f;stroke:none" d="m62 61 1 1-1-1z"/>
  <path style="fill:#2f2f2f;stroke:none" d="M66 61v1h3v-1h-3m10 0v4h1l-1-4m6 0 1 1-1-1z"/>
  <path style="fill:#a2a2a2;stroke:none" d="M88 62h1-1z"/>
  <path style="fill:#5f5f5f;stroke:none" d="m94 61 1 1-1-1z"/>
  <path style="fill:#a2a2a2;stroke:none" d="m98 61-2 7h1l1-7m-55 1v1-1z"/>
  <path style="fill:#5f5f5f;stroke:none" d="m47 62 3 2v-1l-3-1z"/>
  <path style="fill:#2f2f2f;stroke:none" d="m61 62 1 1-1-1z"/>
  <path style="fill:#5f5f5f;stroke:none" d="m66 62 1 1-1-1m2 0 1 1-1-1z"/>
  <path style="fill:#050505;stroke:none" d="m82 62 1 1-1-1z"/>
  <path style="fill:#5f5f5f;stroke:none" d="m95 62 1 1-1-1z"/>
  <path style="fill:#2f2f2f;stroke:none" d="m110 62 1 1-1-1z"/>
  <path style="fill:#050505;stroke:none" d="m43 63 4 5-4-5z"/>
  <path style="fill:#5f5f5f;stroke:none" d="m44 63 1 1-1-1z"/>
  <path style="fill:#a2a2a2;stroke:none" d="m45 64 2 5h1l-2-5 4 4c0-3-2-4-5-4z"/>
  <path style="fill:#2f2f2f;stroke:none" d="M52 64h1-1z"/>
  <path style="fill:#a2a2a2;stroke:none" d="m53 63 4 4-4-4m7 0 1 1-1-1m8 0 1 1-1-1z"/>
  <path style="fill:#5f5f5f;stroke:none" d="m79 63 1 1-1-1z"/>
  <path style="fill:#fdfdfd;stroke:none" d="m83 63 1 1-1-1z"/>
  <path style="fill:#5f5f5f;stroke:none" d="M96 64h1-1m15 0h1-1z"/>
  <path style="fill:#a2a2a2;stroke:none" d="M20 64v5h1l-1-5z"/>
  <path style="fill:#2f2f2f;stroke:none" d="M29 64v3h1l-1-3z"/>
  <path style="fill:#5f5f5f;stroke:none" d="m43 64 1 1-1-1z"/>
  <path style="fill:#fdfdfd;stroke:none" d="m46 64 9 8-9-8z"/>
  <path style="fill:#2f2f2f;stroke:none" d="m60 64 1 1-1-1m7 0 1 1-1-1m11 0 1 1-1-1z"/>
  <path style="fill:#5f5f5f;stroke:none" d="m81 64 1 4h1l-2-4z"/>
  <path style="fill:#a2a2a2;stroke:none" d="m89 64 1 1-1-1z"/>
  <path style="fill:#2f2f2f;stroke:none" d="m107 64 1 1-1-1z"/>
  <path style="fill:#5f5f5f;stroke:none" d="m45 65 1 1-1-1z"/>
  <path style="fill:#2f2f2f;stroke:none" d="m59 65 1 1-1-1z"/>
  <path style="fill:#5f5f5f;stroke:none" d="m66 65 1 1-1-1z"/>
  <path style="fill:#a2a2a2;stroke:none" d="m67 65 1 1-1-1z"/>
  <path style="fill:#5f5f5f;stroke:none" d="M76 65v4h1l-1-4m2 0 1 1-1-1z"/>
  <path style="fill:#2f2f2f;stroke:none" d="m82 65 1 1-1-1z"/>
  <path style="fill:#a2a2a2;stroke:none" d="m90 65 1 1-1-1z"/>
  <path style="fill:#2f2f2f;stroke:none" d="M103 65v3h1l-1-3m5 0 1 1-1-1m2 0 1 1-1-1z"/>
  <path style="fill:#5f5f5f;stroke:none" d="m44 66 1 1-1-1z"/>
  <path style="fill:#2f2f2f;stroke:none" d="m46 66 1 1-1-1m4 0 1 1-1-1m4 0 1 1-1-1z"/>
  <path style="fill:#5f5f5f;stroke:none" d="m57 66 1 1-1-1z"/>
  <path style="fill:#2f2f2f;stroke:none" d="m65 66 1 1-1-1z"/>
  <path style="fill:#a2a2a2;stroke:none" d="m66 66-1 4h1v-4z"/>
  <path style="fill:#5f5f5f;stroke:none" d="m78 68 3-2-3 2z"/>
  <path style="fill:#2f2f2f;stroke:none" d="m92 66 1 1-1-1m3 0 1 1-1-1z"/>
  <path style="fill:#5f5f5f;stroke:none" d="m96 66 1 1-1-1m12 2 3-1-3 1z"/>
  <path style="fill:#2f2f2f;stroke:none" d="m45 67 1 1-1-1z"/>
  <path style="fill:#5f5f5f;stroke:none" d="m51 67 1 1-1-1m14 0 1 1-1-1z"/>
  <path style="fill:#2f2f2f;stroke:none" d="m80 67 1 1-1-1m13 0 2 2-2-2z"/>
  <path style="fill:#a2a2a2;stroke:none" d="m109 67 1 1-1-1z"/>
  <path style="fill:#2f2f2f;stroke:none" d="M29 69h1-1m17-1 1 1-1-1z"/>
  <path style="fill:#a2a2a2;stroke:none" d="m52 68 1 1-1-1z"/>
  <path style="fill:#2f2f2f;stroke:none" d="M79 68v1-1m3 0 1 1-1-1z"/>
  <path style="fill:#a2a2a2;stroke:none" d="m93 68 1 1-1-1m2 0 1 1-1-1z"/>
  <path style="fill:#5f5f5f;stroke:none" d="m103 68 1 1-1-1z"/>
  <path style="fill:#2f2f2f;stroke:none" d="m106 68-1 2 1-2z"/>
  <path style="fill:#a2a2a2;stroke:none" d="M108 68v1-1z"/>
  <path style="fill:#2f2f2f;stroke:none" d="M48 69v1-1z"/>
  <path style="fill:#a2a2a2;stroke:none" d="m49 69 1 1-1-1m4 0 1 1-1-1z"/>
  <path style="fill:#2f2f2f;stroke:none" d="m60 71 3-2-3 2z"/>
  <path style="fill:#a2a2a2;stroke:none" d="M76 70h1-1z"/>
  <path style="fill:#2f2f2f;stroke:none" d="M81 69v1-1z"/>
  <path style="fill:#a2a2a2;stroke:none" d="m103 69 1 1-1-1z"/>
  <path style="fill:#5f5f5f;stroke:none" d="m106 69 1 1-1-1m-77 1v3h1l-1-3m19 0 1 1-1-1z"/>
  <path style="fill:#050505;stroke:none" d="m49 70 3 2v-1l-3-1z"/>
  <path style="fill:#5f5f5f;stroke:none" d="m50 70 1 1-1-1z"/>
  <path style="fill:#a2a2a2;stroke:none" d="m51 70 1 1-1-1m3 0 3 2-3-2z"/>
  <path style="fill:#5f5f5f;stroke:none" d="M57 70v3h1l-1-3z"/>
  <path style="fill:#a2a2a2;stroke:none" d="M58 70v2h2l-2-2z"/>
  <path style="fill:#5f5f5f;stroke:none" d="M62 70v1h3l-3-1z"/>
  <path style="fill:#2f2f2f;stroke:none" d="m79 70 1 1-1-1z"/>
  <path style="fill:#a2a2a2;stroke:none" d="m104 70 1 1-1-1m-55 1 1 1-1-1z"/>
  <path style="fill:#5f5f5f;stroke:none" d="M52 71v2h2l-2-2z"/>
  <path style="fill:#a2a2a2;stroke:none" d="M62 71v1-1z"/>
  <path style="fill:#2f2f2f;stroke:none" d="M27 72v2l2-2h-2z"/>
  <path style="fill:#a2a2a2;stroke:none" d="m51 72 1 1-1-1z"/>
  <path style="fill:#2f2f2f;stroke:none" d="m54 72 1 1-1-1z"/>
  <path style="fill:#050505;stroke:none" d="M56 72v1-1z"/>
  <path style="fill:#a2a2a2;stroke:none" d="m123 72-1 3h1v-3z"/>
  <path style="fill:#5f5f5f;stroke:none" d="M124 72v1h3l-3-1z"/>
  <path style="fill:#a2a2a2;stroke:none" d="M128 72v1-1z"/>
  <path style="fill:#2f2f2f;stroke:none" d="m21 73 1 1-1-1z"/>
  <path style="fill:#a2a2a2;stroke:none" d="m28 73 1 1-1-1m26 0v1h4l-4-1m47 0v1-1z"/>
  <path style="fill:#5f5f5f;stroke:none" d="M102 73v1h3l-3-1z"/>
  <path style="fill:#2f2f2f;stroke:none" d="M105 73v1h6l-6-1z"/>
  <path style="fill:#5f5f5f;stroke:none" d="m111 73 1 1-1-1z"/>
  <path style="fill:#a2a2a2;stroke:none" d="M113 73v1-1z"/>
  <path style="fill:#050505;stroke:none" d="m123 73 1 39 4-5c4 0 3-8 4-12 1-10 5-22-9-22z"/>
  <path style="fill:#5f5f5f;stroke:none" d="m130 73 1 1-1-1z"/>
  <path style="fill:#a2a2a2;stroke:none" d="m131 73 1 1-1-1z"/>
  <path style="fill:#5f5f5f;stroke:none" d="m27 74-1 2 1-2z"/>
  <path style="fill:#a2a2a2;stroke:none" d="m96 74-1 2 1-2z"/>
  <path style="fill:#5f5f5f;stroke:none" d="m97 74 1 1-1-1z"/>
  <path style="fill:#050505;stroke:none" d="M97 93h1v-9l2-1h1v12l8 11 6 4c1-7-6-10-5-17 1-6 10-7 7-15-3-5-18-7-20-2s0 12 0 17z"/>
  <path style="fill:#2f2f2f;stroke:none" d="m113 74 1 1-1-1z"/>
  <path style="fill:#5f5f5f;stroke:none" d="m114 74 1 1-1-1m18 0 1 1-1-1z"/>
  <path style="fill:#2f2f2f;stroke:none" d="m21 75 1 1-1-1z"/>
  <path style="fill:#a2a2a2;stroke:none" d="m27 75 1 1-1-1m53 0v1-1z"/>
  <path style="fill:#5f5f5f;stroke:none" d="m115 75 1 1-1-1m7 0 1 1-1-1z"/>
  <path style="fill:#a2a2a2;stroke:none" d="m133 75 1 1-1-1z"/>
  <path style="fill:#5f5f5f;stroke:none" d="m21 76 1 1-1-1z"/>
  <path style="fill:#a2a2a2;stroke:none" d="m25 76 1 1-1-1m48 0v1-1z"/>
  <path style="fill:#5f5f5f;stroke:none" d="m74 76 1 1-1-1z"/>
  <path style="fill:#2f2f2f;stroke:none" d="m75 76 1 1-1-1z"/>
  <path style="fill:#050505;stroke:none" d="m85 112 3-6-1-4-2-3h-1c-3 14-15 8-13-4 1-6 10-19 13-7l4 1c0-25-34-7-21 14l6 7c3 3 8 2 12 2z"/>
  <path style="fill:#5f5f5f;stroke:none" d="m82 76 1 1-1-1z"/>
  <path style="fill:#a2a2a2;stroke:none" d="m83 76 1 1-1-1z"/>
  <path style="fill:#2f2f2f;stroke:none" d="M95 77h1-1z"/>
  <path style="fill:#a2a2a2;stroke:none" d="m116 76 1 1-1-1m6 0v12h1l-1-12z"/>
  <path style="fill:#5f5f5f;stroke:none" d="M133 76v7h1l-1-7z"/>
  <path style="fill:#a2a2a2;stroke:none" d="m21 77 3 2v-1l-3-1z"/>
  <path style="fill:#2f2f2f;stroke:none" d="m22 77 1 1-1-1z"/>
  <path style="fill:#5f5f5f;stroke:none" d="m24 77 1 1-1-1m47 0 1 1-1-1z"/>
  <path style="fill:#2f2f2f;stroke:none" d="m84 77 1 1-1-1z"/>
  <path style="fill:#a2a2a2;stroke:none" d="m85 77 1 1-1-1m32 0 1 1-1-1z"/>
  <path style="fill:#5f5f5f;stroke:none" d="m70 78 1 1-1-1z"/>
  <path style="fill:#a2a2a2;stroke:none" d="m86 78 1 1-1-1z"/>
  <path style="fill:#5f5f5f;stroke:none" d="m95 78 1 1-1-1m22 0 1 1-1-1z"/>
  <path style="fill:#a2a2a2;stroke:none" d="m59 79 1 1-1-1z"/>
  <path style="fill:#5f5f5f;stroke:none" d="m69 79 1 1-1-1z"/>
  <path style="fill:#a2a2a2;stroke:none" d="m87 79 1 1-1-1m8 0v4h1l-1-4z"/>
  <path style="fill:#2f2f2f;stroke:none" d="m117 79 1 1-1-1z"/>
  <path style="fill:#a2a2a2;stroke:none" d="M48 80v1h3l-3-1z"/>
  <path style="fill:#5f5f5f;stroke:none" d="M52 80v1-1z"/>
  <path style="fill:#2f2f2f;stroke:none" d="M54 80v1-1z"/>
  <path style="fill:#050505;stroke:none" d="m40 91 2 29c10-5 8-20 8-30l8-2-1-4 3-1-1-3c-7 1-15 0-22 3-5 2 0 7 3 8z"/>
  <path style="fill:#2f2f2f;stroke:none" d="m56 80 1 1-1-1z"/>
  <path style="fill:#5f5f5f;stroke:none" d="m57 80 1 1-1-1z"/>
  <path style="fill:#2f2f2f;stroke:none" d="M59 81h1-1z"/>
  <path style="fill:#a2a2a2;stroke:none" d="m68 80 1 1-1-1m20 0c1 3 2 9-2 8v1h4l2 10c0-7 2-14-4-19m-47 1v1h3l-3-1z"/>
  <path style="fill:#5f5f5f;stroke:none" d="m44 81 1 1-1-1z"/>
  <path style="fill:#2f2f2f;stroke:none" d="M46 81v1-1z"/>
  <path style="fill:#a2a2a2;stroke:none" d="m67 81 1 1-1-1z"/>
  <path style="fill:#2f2f2f;stroke:none" d="m78 81 1 1-1-1z"/>
  <path style="fill:#a2a2a2;stroke:none" d="M79 81v1l4 2-4-3z"/>
  <path style="fill:#2f2f2f;stroke:none" d="m81 81 1 1-1-1m7 0v5h1l-1-5m16 0 1 1-1-1z"/>
  <path style="fill:#5f5f5f;stroke:none" d="M105 81v1h4l-4-1z"/>
  <path style="fill:#a2a2a2;stroke:none" d="M109 81v1l3 1-3-2z"/>
  <path style="fill:#5f5f5f;stroke:none" d="m111 81 1 1-1-1z"/>
  <path style="fill:#a2a2a2;stroke:none" d="m36 82 1 1-1-1z"/>
  <path style="fill:#5f5f5f;stroke:none" d="M38 82v1-1z"/>
  <path style="fill:#2f2f2f;stroke:none" d="m39 82 1 1-1-1z"/>
  <path style="fill:#a2a2a2;stroke:none" d="m66 82 1 1-1-1z"/>
  <path style="fill:#fdfdfd;stroke:none" d="M78 82c-1 6-13 19-3 26 5 3 6-6 8-5l1-8 2 5h1l3-11-12-7z"/>
  <path style="fill:#2f2f2f;stroke:none" d="m82 82 1 1-1-1z"/>
  <path style="fill:#a2a2a2;stroke:none" d="m91 82 1 1-1-1m13 0 1 1-1-1z"/>
  <path style="fill:#fdfdfd;stroke:none" d="m104 83 1 3 6-3h-7z"/>
  <path style="fill:#a2a2a2;stroke:none" d="m118 82 1 1-1-1m-85 1 1 1-1-1z"/>
  <path style="fill:#5f5f5f;stroke:none" d="m34 83 1 1-1-1z"/>
  <path style="fill:#2f2f2f;stroke:none" d="m58 83-1 3h3l-2-3z"/>
  <path style="fill:#a2a2a2;stroke:none" d="m59 83 1 1-1-1z"/>
  <path style="fill:#2f2f2f;stroke:none" d="m66 83 1 1-1-1z"/>
  <path style="fill:#5f5f5f;stroke:none" d="m77 83 1 1-1-1z"/>
  <path style="fill:#fdfdfd;stroke:none" d="M89 84h1-1z"/>
  <path style="fill:#5f5f5f;stroke:none" d="m96 83 1 1-1-1z"/>
  <path style="fill:#2f2f2f;stroke:none" d="m100 83 1 1-1-1z"/>
  <path style="fill:#5f5f5f;stroke:none" d="m110 83 1 1-1-1m7 0 1 1-1-1z"/>
  <path style="fill:#a2a2a2;stroke:none" d="M133 83v3h1l-1-3z"/>
  <path style="fill:#5f5f5f;stroke:none" d="M33 85h1-1z"/>
  <path style="fill:#a2a2a2;stroke:none" d="m65 84 1 1-1-1m12 0 1 1-1-1z"/>
  <path style="fill:#2f2f2f;stroke:none" d="m83 84 1 1-1-1m15 0 1 1-1-1z"/>
  <path style="fill:#a2a2a2;stroke:none" d="m100 84-1 5h1v-5m4 1h1-1m4-1 1 1-1-1z"/>
  <path style="fill:#2f2f2f;stroke:none" d="m109 84 1 1-1-1z"/>
  <path style="fill:#a2a2a2;stroke:none" d="M116 84v1h3l-3-1z"/>
  <path style="fill:#5f5f5f;stroke:none" d="m58 85-1 4h1v-4z"/>
  <path style="fill:#a2a2a2;stroke:none" d="m76 85 1 1-1-1z"/>
  <path style="fill:#5f5f5f;stroke:none" d="m83 85 1 1-1-1z"/>
  <path style="fill:#a2a2a2;stroke:none" d="M96 85v3h1l-1-3z"/>
  <path style="fill:#5f5f5f;stroke:none" d="m98 85 2 5-2-5z"/>
  <path style="fill:#2f2f2f;stroke:none" d="M103 86h1-1z"/>
  <path style="fill:#a2a2a2;stroke:none" d="m106 85 1 1-1-1z"/>
  <path style="fill:#2f2f2f;stroke:none" d="m107 85 1 1-1-1m9 1h1-1z"/>
  <path style="fill:#5f5f5f;stroke:none" d="m117 85 1 1-1-1z"/>
  <path style="fill:#a2a2a2;stroke:none" d="m33 86 1 1-1-1m26 0 1 1-1-1z"/>
  <path style="fill:#5f5f5f;stroke:none" d="m64 86 1 1-1-1m11 0 1 1-1-1z"/>
  <path style="fill:#a2a2a2;stroke:none" d="m83 86 1 1-1-1z"/>
  <path style="fill:#5f5f5f;stroke:none" d="m88 86 1 1-1-1m13 1h1-1m3-1 1 1-1-1z"/>
  <path style="fill:#2f2f2f;stroke:none" d="m105 86 1 1-1-1z"/>
  <path style="fill:#a2a2a2;stroke:none" d="m117 86 1 1-1-1z"/>
  <path style="fill:#5f5f5f;stroke:none" d="m74 87 1 1-1-1m41 0 1 1-1-1z"/>
  <path style="fill:#a2a2a2;stroke:none" d="m116 87 1 1-1-1z"/>
  <path style="fill:#5f5f5f;stroke:none" d="m34 88 1 1-1-1z"/>
  <path style="fill:#a2a2a2;stroke:none" d="m58 88 1 1-1-1m5 0 1 1-1-1z"/>
  <path style="fill:#2f2f2f;stroke:none" d="m73 88 1 1-1-1z"/>
  <path style="fill:#5f5f5f;stroke:none" d="m84 88 1 1-1-1z"/>
  <path style="fill:#2f2f2f;stroke:none" d="m85 88 1 1-1-1z"/>
  <path style="fill:#5f5f5f;stroke:none" d="m100 88 1 1-1-1m13 0-2 3 2-3z"/>
  <path style="fill:#a2a2a2;stroke:none" d="m114 88 1 1-1-1z"/>
  <path style="fill:#5f5f5f;stroke:none" d="M122 88v4h1l-1-4m-87 1 1 1-1-1z"/>
  <path style="fill:#2f2f2f;stroke:none" d="m53 89 1 1-1-1z"/>
  <path style="fill:#5f5f5f;stroke:none" d="m54 89 1 1-1-1z"/>
  <path style="fill:#a2a2a2;stroke:none" d="m55 89 1 1-1-1z"/>
  <path style="fill:#5f5f5f;stroke:none" d="m63 89 1 1-1-1z"/>
  <path style="fill:#a2a2a2;stroke:none" d="m73 89 1 1-1-1m23 0 1 1-1-1m17 0-1 2h2l-1-2m2 0 1 1-1-1z"/>
  <path style="fill:#2f2f2f;stroke:none" d="M132 90h1-1z"/>
  <path style="fill:#a2a2a2;stroke:none" d="m35 90 2 2-2-2z"/>
  <path style="fill:#2f2f2f;stroke:none" d="m36 90 1 1-1-1m14 0 1 1-1-1z"/>
  <path style="fill:#a2a2a2;stroke:none" d="M52 90v1-1z"/>
  <path style="fill:#2f2f2f;stroke:none" d="m63 90 1 1-1-1z"/>
  <path style="fill:#5f5f5f;stroke:none" d="m72 90 1 1-1-1m23 0 2 4h1l-3-4z"/>
  <path style="fill:#a2a2a2;stroke:none" d="M98 90v4h-1l-1-3h-1v10h1v-6h1l4 4-3 4v3l2-1v1l-2 3 6-6 1-2v-3h-5v-8h-2z"/>
  <path style="fill:#2f2f2f;stroke:none" d="m110 90 1 1-1-1m-73 1 1 1-1-1z"/>
  <path style="fill:#5f5f5f;stroke:none" d="m38 91 1 1-1-1z"/>
  <path style="fill:#a2a2a2;stroke:none" d="m39 91 1 1-1-1z"/>
  <path style="fill:#5f5f5f;stroke:none" d="M50 91v12h1l-1-12z"/>
  <path style="fill:#a2a2a2;stroke:none" d="m62 91 1 1-1-1m10 0 1 1-1-1z"/>
  <path style="fill:#5f5f5f;stroke:none" d="M90 92h1-1z"/>
  <path style="fill:#2f2f2f;stroke:none" d="m109 91 1 1-1-1m15 0v6c2-2 2-4 0-6z"/>
  <path style="fill:#5f5f5f;stroke:none" d="M132 92h1-1m-70 0 1 1-1-1z"/>
  <path style="fill:#a2a2a2;stroke:none" d="M89 93h1-1z"/>
  <path style="fill:#5f5f5f;stroke:none" d="m99 92 1 1-1-1z"/>
  <path style="fill:#2f2f2f;stroke:none" d="M122 92v5h1l-1-5z"/>
  <path style="fill:#a2a2a2;stroke:none" d="m62 93 1 1-1-1z"/>
  <path style="fill:#2f2f2f;stroke:none" d="m71 93 1 1-1-1m19 0 1 1-1-1z"/>
  <path style="fill:#fdfdfd;stroke:none" d="m91 93 1 1-1-1z"/>
  <path style="fill:#5f5f5f;stroke:none" d="m100 93 1 1-1-1m10 0 1 1-1-1m14 0v3h1l-1-3z"/>
  <path style="fill:#a2a2a2;stroke:none" d="M132 93v5h1l-1-5z"/>
  <path style="fill:#2f2f2f;stroke:none" d="m63 94 1 1-1-1z"/>
  <path style="fill:#5f5f5f;stroke:none" d="M71 95h1-1m18-1c-1 3-2 5 1 7h-4v1l5-3h-2l2-5h-2z"/>
  <path style="fill:#2f2f2f;stroke:none" d="M110 94v4h1l-1-4z"/>
  <path style="fill:#a2a2a2;stroke:none" d="m111 94 1 1-1-1m-48 1v3h1l-1-3m22 0v1-1m3 0 1 1-1-1z"/>
  <path style="fill:#5f5f5f;stroke:none" d="m96 95 1 1-1-1m15 1h1-1z"/>
  <path style="fill:#a2a2a2;stroke:none" d="M71 96v5h1l-1-5z"/>
  <path style="fill:#5f5f5f;stroke:none" d="m85 96-2 5h1l1-5m6 1h1-1z"/>
  <path style="fill:#2f2f2f;stroke:none" d="m96 96 2 2-2-2z"/>
  <path style="fill:#5f5f5f;stroke:none" d="m101 96-1 2h2l-1-2z"/>
  <path style="fill:#a2a2a2;stroke:none" d="M112 96c0 4 1 6 5 8l-2 7 4-8-7-7m-29 1 1 1-1-1z"/>
  <path style="fill:#2f2f2f;stroke:none" d="m85 97-1 2h2l-1-2z"/>
  <path style="fill:#a2a2a2;stroke:none" d="m87 97 1 1-1-1z"/>
  <path style="fill:#050505;stroke:none" d="m96 97 1 17 5-5-3 2 1-9v-2l-4-3z"/>
  <path style="fill:#fdfdfd;stroke:none" d="m98 97 1 1-1-1z"/>
  <path style="fill:#5f5f5f;stroke:none" d="m103 97 1 1-1-1z"/>
  <path style="fill:#2f2f2f;stroke:none" d="m131 97 1 1-1-1m-91 1v4h1l-1-4z"/>
  <path style="fill:#5f5f5f;stroke:none" d="M111 99h1-1z"/>
  <path style="fill:#2f2f2f;stroke:none" d="M122 99h1-1z"/>
  <path style="fill:#5f5f5f;stroke:none" d="m131 98-1 6 1-6m-67 1 1 1-1-1z"/>
  <path style="fill:#a2a2a2;stroke:none" d="M85 99v2h2l-2-2z"/>
  <path style="fill:#2f2f2f;stroke:none" d="m98 99 1 1-1-1z"/>
  <path style="fill:#5f5f5f;stroke:none" d="M100 99v1-1z"/>
  <path style="fill:#fdfdfd;stroke:none" d="m104 99 1 1-1-1z"/>
  <path style="fill:#5f5f5f;stroke:none" d="m105 99 1 1-1-1z"/>
  <path style="fill:#a2a2a2;stroke:none" d="M65 100v1-1m17 1h1-1z"/>
  <path style="fill:#2f2f2f;stroke:none" d="m87 100 1 1-1-1z"/>
  <path style="fill:#a2a2a2;stroke:none" d="M88 101h1-1z"/>
  <path style="fill:#2f2f2f;stroke:none" d="m89 100 1 1-1-1z"/>
  <path style="fill:#5f5f5f;stroke:none" d="M101 101h1-1z"/>
  <path style="fill:#2f2f2f;stroke:none" d="m106 100 2 2-2-2m5 0 1 1-1-1z"/>
  <path style="fill:#5f5f5f;stroke:none" d="M122 101h1-1z"/>
  <path style="fill:#a2a2a2;stroke:none" d="m132 100-1 8h1v-8z"/>
  <path style="fill:#5f5f5f;stroke:none" d="m66 101 1 1-1-1m5 0 1 1-1-1z"/>
  <path style="fill:#2f2f2f;stroke:none" d="m83 101 1 1-1-1m2 0 1 1-1-1z"/>
  <path style="fill:#a2a2a2;stroke:none" d="m90 101 1 3-1-3m16 0 1 1-1-1z"/>
  <path style="fill:#2f2f2f;stroke:none" d="m112 101 1 1-1-1m18 0 1 1-1-1z"/>
  <path style="fill:#5f5f5f;stroke:none" d="M40 102v4h1l-1-4z"/>
  <path style="fill:#a2a2a2;stroke:none" d="m66 102 1 1-1-1m6 1h1-1m9 0h1-1m6 0h1-1z"/>
  <path style="fill:#2f2f2f;stroke:none" d="M96 102v4h1l-1-4z"/>
  <path style="fill:#5f5f5f;stroke:none" d="m98 102 2 2-2-2z"/>
  <path style="fill:#2f2f2f;stroke:none" d="m99 102 1 1-1-1z"/>
  <path style="fill:#5f5f5f;stroke:none" d="m102 102 1 1-1-1z"/>
  <path style="fill:#2f2f2f;stroke:none" d="m108 102 1 1-1-1z"/>
  <path style="fill:#5f5f5f;stroke:none" d="m113 102 1 1-1-1z"/>
  <path style="fill:#a2a2a2;stroke:none" d="M122 102v4h1l-1-4m-72 1v3h1l-1-3m15 0 1 1-1-1z"/>
  <path style="fill:#5f5f5f;stroke:none" d="m67 103 2 3-2-3m15 0 1 1-1-1z"/>
  <path style="fill:#2f2f2f;stroke:none" d="M86 103v1h3v-1h-3z"/>
  <path style="fill:#050505;stroke:none" d="M102 104h1-1z"/>
  <path style="fill:#a2a2a2;stroke:none" d="M108 103v3h1l-1-3z"/>
  <path style="fill:#5f5f5f;stroke:none" d="m114 103 1 1-1-1z"/>
  <path style="fill:#a2a2a2;stroke:none" d="M63 104v1-1z"/>
  <path style="fill:#2f2f2f;stroke:none" d="m72 104 3 5-3-5m10 0v1-1z"/>
  <path style="fill:#5f5f5f;stroke:none" d="m86 104 1 1-1-1m2 0 1 1-1-1z"/>
  <path style="fill:#fdfdfd;stroke:none" d="m98 104 1 1-1-1z"/>
  <path style="fill:#5f5f5f;stroke:none" d="m101 104 1 6h1l-2-6z"/>
  <path style="fill:#a2a2a2;stroke:none" d="m103 104 1 1-1-1z"/>
  <path style="fill:#2f2f2f;stroke:none" d="m109 104 1 1-1-1z"/>
  <path style="fill:#5f5f5f;stroke:none" d="m115 104 1 1-1-1z"/>
  <path style="fill:#fdfdfd;stroke:none" d="m116 104 1 1-1-1z"/>
  <path style="fill:#5f5f5f;stroke:none" d="m118 104 1 1-1-1z"/>
  <path style="fill:#2f2f2f;stroke:none" d="M63 106h1-1z"/>
  <path style="fill:#5f5f5f;stroke:none" d="m64 105 1 1-1-1z"/>
  <path style="fill:#a2a2a2;stroke:none" d="m67 105 1 1-1-1z"/>
  <path style="fill:#2f2f2f;stroke:none" d="m69 105 1 1-1-1z"/>
  <path style="fill:#a2a2a2;stroke:none" d="m73 105 2 3-2-3m7 0 1 1-1-1m8 0 1 1-1-1z"/>
  <path style="fill:#5f5f5f;stroke:none" d="m99 105-1 3 1-3z"/>
  <path style="fill:#a2a2a2;stroke:none" d="M102 106h1-1m2-1 1 1-1-1z"/>
  <path style="fill:#5f5f5f;stroke:none" d="M131 106h1-1z"/>
  <path style="fill:#a2a2a2;stroke:none" d="M40 106v6h1l-1-6z"/>
  <path style="fill:#2f2f2f;stroke:none" d="M49 106v3h1l-1-3z"/>
  <path style="fill:#050505;stroke:none" d="m64 106 2 5h1l-3-5z"/>
  <path style="fill:#a2a2a2;stroke:none" d="m65 106 1 6h1l-2-6m3 0 2 4h1l-3-4z"/>
  <path style="fill:#2f2f2f;stroke:none" d="m80 106 1 1-1-1m7 0 1 1-1-1z"/>
  <path style="fill:#5f5f5f;stroke:none" d="M96 106v5h1l-1-5z"/>
  <path style="fill:#a2a2a2;stroke:none" d="m109 106 2 2-2-2z"/>
  <path style="fill:#2f2f2f;stroke:none" d="m110 106 1 1-1-1z"/>
  <path style="fill:#5f5f5f;stroke:none" d="M116 106v3h1l-1-3z"/>
  <path style="fill:#2f2f2f;stroke:none" d="m127 106 1 1-1-1z"/>
  <path style="fill:#a2a2a2;stroke:none" d="M50 108h1-1m13-1 1 1-1-1z"/>
  <path style="fill:#2f2f2f;stroke:none" d="m79 107 1 1-1-1z"/>
  <path style="fill:#5f5f5f;stroke:none" d="m86 107 1 1-1-1z"/>
  <path style="fill:#a2a2a2;stroke:none" d="m87 107 1 1-1-1z"/>
  <path style="fill:#2f2f2f;stroke:none" d="m101 107-1 3 1-3z"/>
  <path style="fill:#a2a2a2;stroke:none" d="m103 107-4 6v1c3-1 9-4 4-7z"/>
  <path style="fill:#2f2f2f;stroke:none" d="M123 108h1-1m5-1 1 1-1-1m2 0 1 1-1-1z"/>
  <path style="fill:#5f5f5f;stroke:none" d="m64 108 1 1-1-1z"/>
  <path style="fill:#2f2f2f;stroke:none" d="m66 108 1 1-1-1m4 0 1 1-1-1z"/>
  <path style="fill:#5f5f5f;stroke:none" d="m75 108 1 1-1-1z"/>
  <path style="fill:#a2a2a2;stroke:none" d="m76 108 1 1-1-1z"/>
  <path style="fill:#5f5f5f;stroke:none" d="m77 108 1 1-1-1z"/>
  <path style="fill:#2f2f2f;stroke:none" d="m78 108 1 1-1-1m7 0 1 1-1-1z"/>
  <path style="fill:#a2a2a2;stroke:none" d="m86 108-1 4h1v-4z"/>
  <path style="fill:#5f5f5f;stroke:none" d="m100 108 1 1-1-1z"/>
  <path style="fill:#a2a2a2;stroke:none" d="m111 108 1 1-1-1z"/>
  <path style="fill:#2f2f2f;stroke:none" d="m112 108 1 1-1-1m3 1h1-1z"/>
  <path style="fill:#5f5f5f;stroke:none" d="m128 110 3-1-3 1m-57-1 1 1-1-1m14 0 1 1-1-1m13 0 2 2v-2h-2z"/>
  <path style="fill:#2f2f2f;stroke:none" d="m113 109 2 2-2-2z"/>
  <path style="fill:#5f5f5f;stroke:none" d="M123 110h1-1z"/>
  <path style="fill:#a2a2a2;stroke:none" d="M130 109v1-1z"/>
  <path style="fill:#2f2f2f;stroke:none" d="m49 110 1 1-1-1z"/>
  <path style="fill:#a2a2a2;stroke:none" d="M50 110v3h1l-1-3m22 0 1 1-1-1z"/>
  <path style="fill:#2f2f2f;stroke:none" d="m102 110 1 1-1-1z"/>
  <path style="fill:#a2a2a2;stroke:none" d="m113 110 1 1-1-1z"/>
  <path style="fill:#2f2f2f;stroke:none" d="m126 110 1 1-1-1z"/>
  <path style="fill:#a2a2a2;stroke:none" d="M128 110v1-1z"/>
  <path style="fill:#5f5f5f;stroke:none" d="M49 111v3h1l-1-3z"/>
  <path style="fill:#2f2f2f;stroke:none" d="M68 111v1-1z"/>
  <path style="fill:#a2a2a2;stroke:none" d="m69 111 1 1-1-1m4 0 1 1-1-1z"/>
  <path style="fill:#2f2f2f;stroke:none" d="M79 112v1l4-1h-4z"/>
  <path style="fill:#a2a2a2;stroke:none" d="M96 112h1-1z"/>
  <path style="fill:#2f2f2f;stroke:none" d="M101 111v1-1z"/>
  <path style="fill:#a2a2a2;stroke:none" d="m123 111 1 1-1-1z"/>
  <path style="fill:#5f5f5f;stroke:none" d="m126 111 1 1-1-1m-58 1 1 1-1-1z"/>
  <path style="fill:#050505;stroke:none" d="m69 112 3 2v-1l-3-1z"/>
  <path style="fill:#5f5f5f;stroke:none" d="m70 112 1 1-1-1z"/>
  <path style="fill:#a2a2a2;stroke:none" d="m74 112 3 2-3-2z"/>
  <path style="fill:#5f5f5f;stroke:none" d="M77 113h1-1z"/>
  <path style="fill:#a2a2a2;stroke:none" d="m78 112 5 2v-1l-5-1z"/>
  <path style="fill:#5f5f5f;stroke:none" d="M81 112v1h3l-3-1z"/>
  <path style="fill:#a2a2a2;stroke:none" d="m84 112 1 1-1-1m41 0v1-1m-56 1 1 1-1-1z"/>
  <path style="fill:#5f5f5f;stroke:none" d="M72 113v2h2l-2-2z"/>
  <path style="fill:#2f2f2f;stroke:none" d="M47 114v3h1l1-3h-2z"/>
  <path style="fill:#a2a2a2;stroke:none" d="m49 114-1 2h2l-1-2m22 0 1 1-1-1z"/>
  <path style="fill:#2f2f2f;stroke:none" d="m74 114 1 1-1-1z"/>
  <path style="fill:#050505;stroke:none" d="M76 114v1-1z"/>
  <path style="fill:#2f2f2f;stroke:none" d="m77 114 1 1-1-1z"/>
  <path style="fill:#a2a2a2;stroke:none" d="M98 114v1-1m-25 1v1h5l-5-1z"/>
  <path style="fill:#2f2f2f;stroke:none" d="M41 117h1-1z"/>
  <path style="fill:#5f5f5f;stroke:none" d="m46 117 1 1-1-1z"/>
  <path style="fill:#a2a2a2;stroke:none" d="m47 117 1 1-1-1z"/>
  <path style="fill:#5f5f5f;stroke:none" d="m41 118 1 1-1-1m4 0 1 1-1-1m-1 1 1 1-1-1z"/>
  <path style="fill:#a2a2a2;stroke:none" d="M43 120v1-1z"/>
</svg>
